<?xml version="1.0" encoding="utf-8"?>
<!-- Generator: Adobe Illustrator 25.1.0, SVG Export Plug-In . SVG Version: 6.00 Build 0)  -->
<svg version="1.1" xmlns="http://www.w3.org/2000/svg" xmlns:xlink="http://www.w3.org/1999/xlink" x="0px" y="0px"
	 viewBox="0 0 360 360" style="enable-background:new 0 0 360 360;" xml:space="preserve">
<style type="text/css">
	.st0{fill:#FACC6A;}
	.st1{fill:#F1F2F2;}
	.st2{fill:none;stroke:#754C29;stroke-width:8.9235;stroke-linecap:round;stroke-miterlimit:10;}
	.st3{fill:#F1A688;}
	.st4{fill:#8B5E3C;}
</style>
<g id="M">
	<g>
		<path class="st0" d="M38.06,306.86c-14.24,0-24.77-13.23-21.6-27.11c10.62-46.53,21.33-95.38,30.49-139.9
			c6.5-31.6,11.25-54.62,14.24-69.07c2.13-10.28,11.19-17.63,21.69-17.63l0.95,0c8.22,0,15.76,4.53,19.59,11.8l-0.19-0.6
			c14.35,25.26,49.54,86.92,67.93,119.13c5.04,8.83,17.84,8.65,22.62-0.33c17.05-32.03,49.3-92.64,62.8-118.2
			c3.84-7.27,11.37-11.8,19.59-11.8l0.95,0c10.5,0,19.55,7.35,21.69,17.63c3,14.45,7.75,37.47,14.24,69.07
			c9.16,44.52,19.87,93.37,30.49,139.9c3.17,13.88-7.36,27.11-21.6,27.11H38.06z"/>
		<g>
			<g>
				<path class="st1" d="M262.12,233.17c-68.43,0-68.54-106.34,0-106.34C330.55,126.83,330.66,233.17,262.12,233.17L262.12,233.17z"
					/>
			</g>
		</g>
		<g>
			<g>
				<path class="st1" d="M97.88,233.17c-68.43,0-68.54-106.34,0-106.34C166.3,126.83,166.41,233.17,97.88,233.17L97.88,233.17z"/>
			</g>
		</g>
		<path class="st2" d="M112.08,257.35c0,0,24.03,28.21,68.97,28.21s66.88-28.21,66.88-28.21"/>
		<circle class="st3" cx="74.59" cy="259.19" r="12.82"/>
		<circle class="st3" cx="287.12" cy="259.19" r="12.82"/>
	</g>
</g>
<g id="eyes">
	<g>
		<path class="st4" d="M255.8,226.04c29.63,0,29.67-46.04,0-46.04C226.17,180,226.12,226.04,255.8,226.04L255.8,226.04z"/>
	</g>
	<g>
		<path class="st4" d="M108.63,226.04c29.63,0,29.67-46.04,0-46.04C79.01,180,78.96,226.04,108.63,226.04L108.63,226.04z"/>
	</g>
</g>
</svg>
