<svg xmlns="http://www.w3.org/2000/svg" viewBox="0 0 328.21 253.71"><defs><style>.cls-1{fill:#7ecae6;}.cls-2{fill:#f1f2f2;}.cls-3{fill:none;stroke:#754c29;stroke-linecap:round;stroke-miterlimit:10;stroke-width:8.92px;}.cls-4{fill:#b2dcee;}.cls-5{fill:#8b5e3c;}</style></defs><g id="M"><path class="cls-1" d="M38.06,306.86a22.16,22.16,0,0,1-21.6-27.11C27.08,233.22,37.79,184.36,47,139.85q9.75-47.4,14.24-69.07A22.14,22.14,0,0,1,82.88,53.14h1a22.13,22.13,0,0,1,19.59,11.8l-.19-.6c14.35,25.25,49.55,86.92,67.93,119.13a12.92,12.92,0,0,0,22.62-.33c17.05-32,49.3-92.64,62.8-118.2a22.13,22.13,0,0,1,19.59-11.8h.95a22.14,22.14,0,0,1,21.69,17.64q4.49,21.68,14.24,69.07c9.16,44.51,19.87,93.37,30.49,139.9a22.16,22.16,0,0,1-21.6,27.11Z" transform="translate(-15.89 -53.14)"/><path class="cls-2" d="M262.12,233.17c-68.42,0-68.53-106.34,0-106.34s68.54,106.34,0,106.34Z" transform="translate(-15.89 -53.14)"/><path class="cls-2" d="M97.88,233.17c-68.43,0-68.54-106.34,0-106.34s68.53,106.34,0,106.34Z" transform="translate(-15.89 -53.14)"/><path class="cls-3" d="M112.08,257.35s24,28.21,69,28.21,66.88-28.21,66.88-28.21" transform="translate(-15.89 -53.14)"/><circle class="cls-4" cx="58.69" cy="206.04" r="12.82"/><circle class="cls-4" cx="271.23" cy="206.04" r="12.82"/></g><g id="eyes"><path class="cls-5" d="M255.8,226c29.62,0,29.67-46,0-46s-29.68,46,0,46Z" transform="translate(-15.89 -53.14)"/><path class="cls-5" d="M108.63,226c29.63,0,29.68-46,0-46s-29.67,46,0,46Z" transform="translate(-15.89 -53.14)"/></g></svg>